HIERARCHY
ROOT Hips
{
    OFFSET 0.000000 0.000000 0.000000
    CHANNELS 6 Xposition Yposition Zposition Zrotation Xrotation Yrotation
    JOINT Spine
    {
        OFFSET -0.000000 14.517291 0.000000
        CHANNELS 3 Zrotation Xrotation Yrotation
        JOINT Spine1
        {
            OFFSET -0.000000 37.558300 0.000000
            CHANNELS 3 Zrotation Xrotation Yrotation
            JOINT Neck
            {
                OFFSET -0.000000 37.404057 3.400369
                CHANNELS 3 Zrotation Xrotation Yrotation
                JOINT Head
                {
                    OFFSET -0.000000 24.785618 -3.540803
                    CHANNELS 3 Zrotation Xrotation Yrotation
                    End Site
                    {
                        OFFSET -0.000000 35.408028 0.000000
                    }
                }
            }
            JOINT LeftShoulder
            {
                OFFSET 6.992933 33.973492 -0.192664
                CHANNELS 3 Zrotation Xrotation Yrotation
                JOINT LeftArm
                {
                    OFFSET 21.527611 0.000000 0.000000
                    CHANNELS 3 Zrotation Xrotation Yrotation
                    JOINT LeftForeArm
                    {
                        OFFSET 56.353916 0.000000 0.000000
                        CHANNELS 3 Zrotation Xrotation Yrotation
                        JOINT LeftHand
                        {
                            OFFSET 47.774071 0.000000 0.000000
                            CHANNELS 3 Zrotation Xrotation Yrotation
                            End Site
                            {
                                OFFSET 26.556021 0.000000 0.000000
                            }
                        }
                    }
                }
            }
            JOINT RightShoulder
            {
                OFFSET -7.065357 33.973492 -0.192664
                CHANNELS 3 Zrotation Xrotation Yrotation
                JOINT RightArm
                {
                    OFFSET -21.527611 0.000000 0.000000
                    CHANNELS 3 Zrotation Xrotation Yrotation
                    JOINT RightForeArm
                    {
                        OFFSET -56.353916 0.000000 0.000000
                        CHANNELS 3 Zrotation Xrotation Yrotation
                        JOINT RightHand
                        {
                            OFFSET -47.774071 0.000000 0.000000
                            CHANNELS 3 Zrotation Xrotation Yrotation
                            End Site
                            {
                                OFFSET -26.556021 0.000000 0.000000
                            }
                        }
                    }
                }
            }
        }
    }
    JOINT LeftUpLeg
    {
        OFFSET 17.704014 0.000000 0.000000
        CHANNELS 3 Zrotation Xrotation Yrotation
        JOINT LeftLeg
        {
            OFFSET -0.000000 -81.181816 0.000000
            CHANNELS 3 Zrotation Xrotation Yrotation
            JOINT LeftFoot
            {
                OFFSET -0.000000 -62.821102 0.000000
                CHANNELS 3 Zrotation Xrotation Yrotation
                JOINT LeftToeBase
                {
                    OFFSET -0.000000 -11.507608 26.556021
                    CHANNELS 3 Zrotation Xrotation Yrotation
                    End Site
                    {
                        OFFSET -0.000000 0.000000 7.081605
                    }
                }
            }
        }
    }
    JOINT RightUpLeg
    {
        OFFSET -17.704014 0.000000 0.000000
        CHANNELS 3 Zrotation Xrotation Yrotation
        JOINT RightLeg
        {
            OFFSET -0.000000 -81.181816 0.000000
            CHANNELS 3 Zrotation Xrotation Yrotation
            JOINT RightFoot
            {
                OFFSET -0.000000 -62.821102 0.000000
                CHANNELS 3 Zrotation Xrotation Yrotation
                JOINT RightToeBase
                {
                    OFFSET -0.000000 -11.507608 26.556021
                    CHANNELS 3 Zrotation Xrotation Yrotation
                    End Site
                    {
                        OFFSET -0.000000 0.000000 7.081605
                    }
                }
            }
        }
    }
}
MOTION
Frames:    4
Frame Time:    0.008333
15.077384    155.328888    -106.140854    0.592710    -9.569900    47.106697    -4.285050    1.600681    -3.565776    -2.289210    3.059149    -1.148241    2.277182    6.613708    -18.274382    18.378351    0.375993    -16.764751    6.076573    6.038355    -21.496519    -23.601841    14.941527    -66.559494    -6.792011    -28.392159    -110.363602    -9.187653    -35.661415    -15.064336    -0.763813    6.055305    -4.859454    31.590347    -12.148255    49.737396    -26.112635    -14.209764    63.893276    -12.273240    -1.824270    37.255745    20.381966    -4.320740    -2.038797    -14.835326    38.211155    -18.544594    6.359384    -26.903601    42.122410    0.000000    0.000000    0.000000    -17.643169    -13.074839    -15.902714    13.860185    32.613800    -15.694145    11.996212    3.228404    -20.405313    0.000000    0.000000    0.000000    
15.085277    155.330795    -106.141533    0.591728    -9.559044    47.092087    -4.283674    1.591785    -3.541387    -2.289389    3.069556    -1.139764    2.281377    6.616627    -18.285904    18.382856    0.386958    -16.778357    6.073637    6.065366    -21.466520    -23.493597    15.184455    -66.126839    -7.218583    -27.275845    -109.976006    -8.941572    -35.115181    -14.879106    -0.762298    6.046697    -4.874907    31.557304    -12.186502    49.800407    -26.572962    -13.652408    63.594292    -13.508459    -1.320433    36.171547    20.370605    -4.314906    -2.019616    -14.822789    38.204285    -18.552479    6.359168    -26.902222    42.120708    0.000000    0.000000    0.000000    -17.645317    -13.069811    -15.885753    13.867064    32.582161    -15.696200    11.980125    3.217047    -20.402714    0.000000    0.000000    0.000000    
15.091814    155.335159    -106.144974    0.588079    -9.540008    47.074711    -4.293432    1.580813    -3.516054    -2.274086    3.070144    -1.131597    2.293478    6.605158    -18.289888    18.355175    0.415605    -16.792217    6.097738    6.168668    -21.370756    -23.351089    15.378753    -65.811729    -7.717935    -26.185913    -109.555222    -8.847765    -34.650982    -14.796491    -0.767502    6.044483    -4.889793    31.592539    -12.157845    49.698254    -26.076380    -14.111252    63.886696    -12.333131    -1.763469    37.204327    20.354506    -4.313055    -2.007363    -14.817361    38.187408    -18.552801    6.354303    -26.895231    42.120937    0.000000    0.000000    0.000000    -17.648384    -13.078263    -15.895901    13.845207    32.562305    -15.680785    11.975795    3.213149    -20.390610    0.000000    0.000000    0.000000    
15.098312    155.341293    -106.150993    0.586524    -9.522907    47.058788    -4.300702    1.565263    -3.493242    -2.262609    3.087807    -1.123848    2.299644    6.605391    -18.295076    18.348078    0.424530    -16.800629    6.091498    6.205269    -21.339746    -23.238638    15.566697    -65.404495    -8.211596    -25.030888    -109.132370    -8.519506    -34.149464    -14.630963    -0.761122    6.034745    -4.905986    31.598227    -12.171387    49.686710    -25.982004    -14.141527    63.903458    -12.200468    -1.822504    37.332180    20.336317    -4.308314    -1.991075    -14.802398    38.165409    -18.554785    6.339323    -26.895699    42.114880    0.000000    0.000000    0.000000    -17.654043    -13.078970    -15.890136    13.842858    32.531738    -15.683291    11.962419    3.208442    -20.378481    0.000000    0.000000    0.000000    
